<svg xmlns="http://www.w3.org/2000/svg" viewBox="-512 -512 1024 1024"><defs><g id="a"><text x="-502" y="-460.8" alignment-baseline="middle" text-anchor="middle">0</text><path d="M-492-460.8H0"/><circle r="460.8" fill="none"/><text x="-502" y="-284.79" alignment-baseline="middle" text-anchor="middle">1</text><path d="M-492-284.79H0"/><circle r="284.79" fill="none"/><text x="-502" y="-176.01" alignment-baseline="middle" text-anchor="middle">2</text><path d="M-492-176.01H0"/><circle r="176.01" fill="none"/><text x="-502" y="-108.78" alignment-baseline="middle" text-anchor="middle">3</text><path d="M-492-108.78H0"/><circle r="108.78" fill="none"/><path d="M0-176.01V-460.8"/><text y="-460.8" alignment-baseline="middle" text-anchor="middle">0</text><path d="m36.59-172.16 59.22-278.57"/><text x="95.81" y="-450.73" alignment-baseline="middle" text-anchor="middle">1</text><path d="m71.59-160.79 115.83-260.17"/><text x="187.42" y="-420.96" alignment-baseline="middle" text-anchor="middle">2</text><path d="m103.46-142.4 167.39-230.4"/><text x="270.85" y="-372.8" alignment-baseline="middle" text-anchor="middle">3</text><path d="m130.8-117.77 211.64-190.57"/><text x="342.44" y="-308.34" alignment-baseline="middle" text-anchor="middle">4</text><path d="m152.43-88 246.63-142.4"/><text x="399.06" y="-230.4" alignment-baseline="middle" text-anchor="middle">5</text><path d="m167.4-54.39 270.85-88.01"/><text x="438.25" y="-142.4" alignment-baseline="middle" text-anchor="middle">6</text><path d="m175.05-18.4 283.23-29.77"/><text x="458.28" y="-48.17" alignment-baseline="middle" text-anchor="middle">7</text><path d="m175.05 18.4 283.23 29.77"/><text x="458.28" y="48.17" alignment-baseline="middle" text-anchor="middle">8</text><path d="m167.4 54.39 270.85 88.01"/><text x="438.25" y="142.4" alignment-baseline="middle" text-anchor="middle">9</text><path d="m152.43 88 246.63 142.4"/><text x="399.06" y="230.4" alignment-baseline="middle" text-anchor="middle">10</text><path d="m130.8 117.77 211.64 190.57"/><text x="342.44" y="308.34" alignment-baseline="middle" text-anchor="middle">11</text><path d="m103.46 142.4 167.39 230.4"/><text x="270.85" y="372.8" alignment-baseline="middle" text-anchor="middle">12</text><path d="m71.59 160.79 115.83 260.17"/><text x="187.42" y="420.96" alignment-baseline="middle" text-anchor="middle">13</text><path d="m36.59 172.16 59.22 278.57"/><text x="95.81" y="450.73" alignment-baseline="middle" text-anchor="middle">14</text><path d="M0 176.01V460.8"/><text y="460.8" alignment-baseline="middle" text-anchor="middle">15</text><path d="m-36.59 172.16-59.22 278.57"/><text x="-95.81" y="450.73" alignment-baseline="middle" text-anchor="middle">16</text><path d="m-71.59 160.79-115.83 260.17"/><text x="-187.42" y="420.96" alignment-baseline="middle" text-anchor="middle">17</text><path d="m-103.46 142.4-167.39 230.4"/><text x="-270.85" y="372.8" alignment-baseline="middle" text-anchor="middle">18</text><path d="m-130.8 117.77-211.64 190.57"/><text x="-342.44" y="308.34" alignment-baseline="middle" text-anchor="middle">19</text><path d="m-152.43 88-246.63 142.4"/><text x="-399.06" y="230.4" alignment-baseline="middle" text-anchor="middle">20</text><path d="m-167.4 54.39-270.85 88.01"/><text x="-438.25" y="142.4" alignment-baseline="middle" text-anchor="middle">21</text><path d="m-175.05 18.4-283.23 29.77"/><text x="-458.28" y="48.17" alignment-baseline="middle" text-anchor="middle">22</text><path d="m-175.05-18.4-283.23-29.77"/><text x="-458.28" y="-48.17" alignment-baseline="middle" text-anchor="middle">23</text><path d="m-167.4-54.39-270.85-88.01"/><text x="-438.25" y="-142.4" alignment-baseline="middle" text-anchor="middle">24</text><path d="m-152.43-88-246.63-142.4"/><text x="-399.06" y="-230.4" alignment-baseline="middle" text-anchor="middle">25</text><path d="m-130.8-117.77-211.64-190.57"/><text x="-342.44" y="-308.34" alignment-baseline="middle" text-anchor="middle">26</text><path d="m-103.46-142.4-167.39-230.4"/><text x="-270.85" y="-372.8" alignment-baseline="middle" text-anchor="middle">27</text><path d="m-71.59-160.79-115.83-260.17"/><text x="-187.42" y="-420.96" alignment-baseline="middle" text-anchor="middle">28</text><path d="m-36.59-172.16-59.22-278.57"/><text x="-95.81" y="-450.73" alignment-baseline="middle" text-anchor="middle">29</text><path fill="none" d="m0-460.8 103.46 318.4h334.79L167.4 54.39 270.85 372.8 0 176.01-270.85 372.8-167.4 54.39-438.25-142.4h334.79z"/></g></defs><path fill="hsl(225, 100%, 15%)" d="M-512-512H512V512H-512Z"/><path fill="none" stroke="hsl(225, 100%, 50%)" stroke-width="67.23" d="M0-460.8a460.8 460.8 0 1 1-270.85 833.6Z"/><path fill="none" stroke="hsl(45, 100%, 50%)" stroke-width="67.23" d="M-246.64-142.4a284.79 284.79 0 1 1 458.28 332.96l59.21 182.24L0 176.01l-115.83 84.16a284.79 284.79 0 0 1-95.81-69.61l108.18-332.96Z"/><use stroke="hsl(180, 100%, 75%)" href="#a"/></svg>