<svg xmlns="http://www.w3.org/2000/svg" viewBox="-512 -512 1024 1024"><defs><g id="b"><circle r="460.8" fill="none"/><circle r="284.79" fill="none"/><circle r="176.01" fill="none"/><circle r="108.78" fill="none"/><path d="M0-176.01V-460.8M36.59-172.16l59.22-278.57M71.59-160.79l115.83-260.17M103.46-142.4l167.39-230.4M130.8-117.77l211.64-190.57M152.43-88l246.63-142.4M167.4-54.39l270.85-88.01M175.05-18.4l283.23-29.77M175.05 18.4l283.23 29.77M167.4 54.39l270.85 88.01M152.43 88l246.63 142.4M130.8 117.77l211.64 190.57M103.46 142.4l167.39 230.4M71.59 160.79l115.83 260.17M36.59 172.16l59.22 278.57M0 176.01V460.8M-36.59 172.16l-59.22 278.57M-71.59 160.79l-115.83 260.17M-103.46 142.4l-167.39 230.4M-130.8 117.77l-211.64 190.57M-152.43 88l-246.63 142.4M-167.4 54.39l-270.85 88.01M-175.05 18.4l-283.23 29.77M-175.05-18.4l-283.23-29.77M-167.4-54.39l-270.85-88.01M-152.43-88l-246.63-142.4M-130.8-117.77l-211.64-190.57M-103.46-142.4l-167.39-230.4M-71.59-160.79l-115.83-260.17M-36.59-172.16l-59.22-278.57"/><path fill="none" d="m0-460.8 103.46 318.4h334.79L167.4 54.39 270.85 372.8 0 176.01-270.85 372.8-167.4 54.39-438.25-142.4h334.79z"/><filter id="a" width="1024" x="-512"><feMorphology in="SourceAlpha" operator="dilate" radius="2.316" result="DILATED"/><feFlood flood-color="#fff" flood-opacity="1" result="WHITE"/><feComposite in="WHITE" in2="DILATED" operator="in" result="OUTLINE"/><feMorphology in="OUTLINE" operator="dilate" radius="2.316" result="DILATED2"/><feFlood flood-color="#000" flood-opacity="1" result="BLACK"/><feComposite in="BLACK" in2="DILATED2" operator="in" result="OUTLINE2"/><feMerge><feMergeNode in="OUTLINE2"/><feMergeNode in="OUTLINE"/><feMergeNode in="SourceGraphic"/></feMerge></filter></g></defs><path fill="none" d="M-512-512H512V512H-512Z"/><g fill="none" stroke-width="67.23" filter="url(#a)"><path stroke="hsl(225, 100%, 50%)" d="M0-460.8a460.8 460.8 0 1 1-270.85 833.6Z"/><path stroke="hsl(45, 100%, 50%)" d="M-246.64-142.4a284.79 284.79 0 1 1 458.28 332.96l59.21 182.24L0 176.01l-115.83 84.16a284.79 284.79 0 0 1-95.81-69.61l108.18-332.96Z"/></g><use stroke="hsl(180, 100%, 75%)" href="#b"/></svg>